<mxfile host="app.diagrams.net" modified="2023-06-09T04:01:23.294Z" agent="Mozilla/5.0 (Windows NT 10.0; Win64; x64) AppleWebKit/537.36 (KHTML, like Gecko) Chrome/114.0.0.0 Safari/537.36" etag="BzTOMQzWh7TZ_SIi0lm7" version="21.3.7" type="device">
  <diagram name="第 1 页" id="5CGUBvXA_sOc-f6JXSKk">
    <mxGraphModel dx="1728" dy="2106" grid="1" gridSize="10" guides="1" tooltips="1" connect="1" arrows="1" fold="1" page="1" pageScale="1" pageWidth="827" pageHeight="1169" math="0" shadow="0">
      <root>
        <mxCell id="0" />
        <mxCell id="1" parent="0" />
        <mxCell id="xkWTr7t-7VKMxsnYdvNV-1" value="在不破坏封装性的捕获一个对象的内部状态，并在对象之外保存这个状态，这样以后就可将该对象恢复到原先保存的状态" style="html=1;whiteSpace=wrap;" vertex="1" parent="1">
          <mxGeometry x="120" y="-10" width="110" height="100" as="geometry" />
        </mxCell>
        <mxCell id="xkWTr7t-7VKMxsnYdvNV-2" value="Originator" style="swimlane;fontStyle=1;align=center;verticalAlign=top;childLayout=stackLayout;horizontal=1;startSize=26;horizontalStack=0;resizeParent=1;resizeParentMax=0;resizeLast=0;collapsible=1;marginBottom=0;whiteSpace=wrap;html=1;" vertex="1" parent="1">
          <mxGeometry x="100" y="198" width="160" height="100" as="geometry" />
        </mxCell>
        <mxCell id="xkWTr7t-7VKMxsnYdvNV-3" value="+ state" style="text;strokeColor=none;fillColor=none;align=left;verticalAlign=top;spacingLeft=4;spacingRight=4;overflow=hidden;rotatable=0;points=[[0,0.5],[1,0.5]];portConstraint=eastwest;whiteSpace=wrap;html=1;" vertex="1" parent="xkWTr7t-7VKMxsnYdvNV-2">
          <mxGeometry y="26" width="160" height="26" as="geometry" />
        </mxCell>
        <mxCell id="xkWTr7t-7VKMxsnYdvNV-4" value="" style="line;strokeWidth=1;fillColor=none;align=left;verticalAlign=middle;spacingTop=-1;spacingLeft=3;spacingRight=3;rotatable=0;labelPosition=right;points=[];portConstraint=eastwest;strokeColor=inherit;" vertex="1" parent="xkWTr7t-7VKMxsnYdvNV-2">
          <mxGeometry y="52" width="160" height="8" as="geometry" />
        </mxCell>
        <mxCell id="xkWTr7t-7VKMxsnYdvNV-5" value="+ SetMemento(Memento m)&lt;br&gt;+ CreateMemento()" style="text;strokeColor=none;fillColor=none;align=left;verticalAlign=top;spacingLeft=4;spacingRight=4;overflow=hidden;rotatable=0;points=[[0,0.5],[1,0.5]];portConstraint=eastwest;whiteSpace=wrap;html=1;" vertex="1" parent="xkWTr7t-7VKMxsnYdvNV-2">
          <mxGeometry y="60" width="160" height="40" as="geometry" />
        </mxCell>
        <mxCell id="xkWTr7t-7VKMxsnYdvNV-6" value="Memento" style="swimlane;fontStyle=1;align=center;verticalAlign=top;childLayout=stackLayout;horizontal=1;startSize=26;horizontalStack=0;resizeParent=1;resizeParentMax=0;resizeLast=0;collapsible=1;marginBottom=0;whiteSpace=wrap;html=1;" vertex="1" parent="1">
          <mxGeometry x="450" y="150" width="160" height="100" as="geometry" />
        </mxCell>
        <mxCell id="xkWTr7t-7VKMxsnYdvNV-7" value="+ state" style="text;strokeColor=none;fillColor=none;align=left;verticalAlign=top;spacingLeft=4;spacingRight=4;overflow=hidden;rotatable=0;points=[[0,0.5],[1,0.5]];portConstraint=eastwest;whiteSpace=wrap;html=1;" vertex="1" parent="xkWTr7t-7VKMxsnYdvNV-6">
          <mxGeometry y="26" width="160" height="26" as="geometry" />
        </mxCell>
        <mxCell id="xkWTr7t-7VKMxsnYdvNV-8" value="" style="line;strokeWidth=1;fillColor=none;align=left;verticalAlign=middle;spacingTop=-1;spacingLeft=3;spacingRight=3;rotatable=0;labelPosition=right;points=[];portConstraint=eastwest;strokeColor=inherit;" vertex="1" parent="xkWTr7t-7VKMxsnYdvNV-6">
          <mxGeometry y="52" width="160" height="8" as="geometry" />
        </mxCell>
        <mxCell id="xkWTr7t-7VKMxsnYdvNV-9" value="+ GetState()&lt;br&gt;+ SetState()" style="text;strokeColor=none;fillColor=none;align=left;verticalAlign=top;spacingLeft=4;spacingRight=4;overflow=hidden;rotatable=0;points=[[0,0.5],[1,0.5]];portConstraint=eastwest;whiteSpace=wrap;html=1;" vertex="1" parent="xkWTr7t-7VKMxsnYdvNV-6">
          <mxGeometry y="60" width="160" height="40" as="geometry" />
        </mxCell>
        <mxCell id="xkWTr7t-7VKMxsnYdvNV-10" value="Caretaker" style="html=1;whiteSpace=wrap;" vertex="1" parent="1">
          <mxGeometry x="800" y="168" width="110" height="50" as="geometry" />
        </mxCell>
        <mxCell id="xkWTr7t-7VKMxsnYdvNV-11" value="1" style="endArrow=open;html=1;endSize=12;startArrow=diamondThin;startSize=14;startFill=0;align=left;verticalAlign=bottom;rounded=0;entryX=1.004;entryY=0.658;entryDx=0;entryDy=0;entryPerimeter=0;" edge="1" parent="1" source="xkWTr7t-7VKMxsnYdvNV-10" target="xkWTr7t-7VKMxsnYdvNV-7">
          <mxGeometry x="-1" y="3" relative="1" as="geometry">
            <mxPoint x="700" y="310" as="sourcePoint" />
            <mxPoint x="860" y="310" as="targetPoint" />
          </mxGeometry>
        </mxCell>
        <mxCell id="xkWTr7t-7VKMxsnYdvNV-12" value="Memento" style="text;html=1;align=center;verticalAlign=middle;resizable=0;points=[];autosize=1;strokeColor=none;fillColor=none;" vertex="1" parent="1">
          <mxGeometry x="725" y="168" width="70" height="30" as="geometry" />
        </mxCell>
        <mxCell id="xkWTr7t-7VKMxsnYdvNV-13" value="" style="endArrow=block;dashed=1;endFill=0;endSize=12;html=1;rounded=0;" edge="1" parent="1" source="xkWTr7t-7VKMxsnYdvNV-3" target="xkWTr7t-7VKMxsnYdvNV-9">
          <mxGeometry width="160" relative="1" as="geometry">
            <mxPoint x="260" y="240" as="sourcePoint" />
            <mxPoint x="420" y="240" as="targetPoint" />
          </mxGeometry>
        </mxCell>
        <mxCell id="xkWTr7t-7VKMxsnYdvNV-14" value="" style="endArrow=block;dashed=1;endFill=0;endSize=12;html=1;rounded=0;exitX=1.01;exitY=0.236;exitDx=0;exitDy=0;exitPerimeter=0;" edge="1" parent="1" source="xkWTr7t-7VKMxsnYdvNV-5" target="xkWTr7t-7VKMxsnYdvNV-15">
          <mxGeometry width="160" relative="1" as="geometry">
            <mxPoint x="350" y="400" as="sourcePoint" />
            <mxPoint x="380" y="350" as="targetPoint" />
          </mxGeometry>
        </mxCell>
        <mxCell id="xkWTr7t-7VKMxsnYdvNV-15" value="State = m-&amp;gt;GetState()" style="html=1;whiteSpace=wrap;" vertex="1" parent="1">
          <mxGeometry x="325" y="325" width="110" height="50" as="geometry" />
        </mxCell>
        <mxCell id="xkWTr7t-7VKMxsnYdvNV-16" value="" style="endArrow=block;dashed=1;endFill=0;endSize=12;html=1;rounded=0;exitX=0.411;exitY=1.01;exitDx=0;exitDy=0;exitPerimeter=0;" edge="1" parent="1" source="xkWTr7t-7VKMxsnYdvNV-5" target="xkWTr7t-7VKMxsnYdvNV-17">
          <mxGeometry width="160" relative="1" as="geometry">
            <mxPoint x="350" y="420" as="sourcePoint" />
            <mxPoint x="150" y="400" as="targetPoint" />
          </mxGeometry>
        </mxCell>
        <mxCell id="xkWTr7t-7VKMxsnYdvNV-17" value="return new Memento(state)" style="html=1;whiteSpace=wrap;" vertex="1" parent="1">
          <mxGeometry x="95" y="375" width="110" height="50" as="geometry" />
        </mxCell>
      </root>
    </mxGraphModel>
  </diagram>
</mxfile>
